<svg width="22" height="22" viewBox="0 0 22 22" fill="none" xmlns="http://www.w3.org/2000/svg">
<path d="M19.65 8.375L18.25 6.975L19 6.2L15.8 3L15.025 3.75L13.6 2.325L15.75 0.125L21.85 6.225L19.65 8.375ZM0.199988 15.75L2.34999 13.6L3.77499 15.025L2.99999 15.775L6.22499 19L6.97499 18.225L8.39999 19.65L6.24999 21.8L0.199988 15.75ZM17.575 12L19 10.575L11.425 3L9.99999 4.425L17.575 12ZM10.575 19L12 17.55L4.44999 10L2.99999 11.425L10.575 19ZM10.425 13.15L13.175 10.425L11.575 8.825L8.84999 11.575L10.425 13.15ZM14.85 17.55L10.575 21.825L0.174988 11.425L4.44999 7.15L7.42499 10.15L10.175 7.4L7.17499 4.425L11.425 0.175L21.825 10.575L17.575 14.825L14.6 11.825L11.85 14.575L14.85 17.55Z" fill="#868495"/>
</svg>
