<svg width="312" height="325" viewBox="0 0 312 325" fill="none" xmlns="http://www.w3.org/2000/svg">
<path opacity="0.18" d="M244.342 313.946C268.381 307.173 293.288 295.641 304.946 273.544C314.916 254.656 313.032 231.199 304.518 211.615C300.894 203.297 296.111 195.312 294.215 186.417C292.201 176.964 293.591 167.155 294.988 157.595L300.531 119.634C301.535 112.772 302.533 105.755 301.274 98.9338C299.979 91.9347 296.366 85.5653 292.112 79.8615C271.257 51.8768 235.78 38.746 201.319 33.1966C173.988 28.7998 145.623 28.3067 118.958 35.7574C92.2919 43.2081 67.4027 59.1968 52.632 82.6243C46.6311 92.1307 42.4066 102.677 37.3623 112.754C31.5039 124.465 24.5345 135.587 18.6345 147.274C8.37347 167.582 1.35056 189.78 0.399917 212.512C-0.503198 234.193 5.47994 252.321 13.7803 271.928C20.6309 288.119 39.7983 294.648 55.2047 301.249C93.2499 317.464 134.339 325.302 175.681 324.231C198.907 323.668 221.971 320.213 244.342 313.946Z" fill="#4F349A"/>
<path opacity="0.18" d="M162.854 293.797C220.272 293.797 266.819 287.7 266.819 280.179C266.819 272.658 220.272 266.561 162.854 266.561C105.435 266.561 58.8885 272.658 58.8885 280.179C58.8885 287.7 105.435 293.797 162.854 293.797Z" fill="#68E1FD"/>
<path d="M166.484 45.9676C167.631 47.5258 168.017 49.5947 168.154 51.5916C168.361 54.6098 168.088 57.6608 168.492 60.6529C168.896 63.6449 170.168 66.7221 172.586 68.1493C172.234 68.4648 171.829 68.7004 171.394 68.8425C170.959 68.9847 170.502 69.0307 170.051 68.9777C169.6 68.9248 169.163 68.774 168.765 68.5341C168.367 68.2941 168.016 67.9698 167.732 67.5797L167.637 69.485C166.335 68.884 165.221 67.8756 164.434 66.5846C164.434 67.344 163.507 67.7631 162.866 67.4881C162.247 67.1385 161.764 66.5551 161.505 65.8447C160.049 62.7152 159.55 59.1666 159.075 55.6901L158.297 50.0399C158.094 48.5865 157.904 47.0413 158.463 45.7057C159.717 42.7137 164.927 43.8856 166.484 45.9676Z" fill="#3F3D56"/>
<path d="M166.484 45.9676C167.631 47.5258 168.017 49.5947 168.154 51.5916C168.361 54.6098 168.088 57.6608 168.492 60.6529C168.896 63.6449 170.168 66.7221 172.586 68.1493C172.234 68.4648 171.829 68.7004 171.394 68.8425C170.959 68.9847 170.502 69.0307 170.051 68.9777C169.6 68.9248 169.163 68.774 168.765 68.5341C168.367 68.2941 168.016 67.9698 167.732 67.5797L167.637 69.485C166.335 68.884 165.221 67.8756 164.434 66.5846C164.434 67.344 163.507 67.7631 162.866 67.4881C162.247 67.1385 161.764 66.5551 161.505 65.8447C160.049 62.7152 159.55 59.1666 159.075 55.6901L158.297 50.0399C158.094 48.5865 157.904 47.0413 158.463 45.7057C159.717 42.7137 164.927 43.8856 166.484 45.9676Z" fill="url(#paint0_linear_60_262)"/>
<path d="M116.723 266.967C115.556 269.108 114.16 271.086 112.564 272.859C111.543 273.857 110.65 275.002 109.909 276.264C109.255 277.573 109.065 279.315 109.855 280.539C110.895 282.163 113.034 282.209 114.834 282.045C118.054 281.75 121.697 281.063 123.455 278.071C124.257 276.722 124.554 275.046 125.463 273.789C126.117 272.892 127.05 272.257 127.65 271.314C128.904 269.35 128.381 266.646 127.781 264.328C127.653 263.481 127.257 262.711 126.664 262.155C126.106 261.823 125.47 261.686 124.84 261.762C123.146 261.808 121.061 261.762 119.611 262.809C118.286 263.785 117.52 265.494 116.723 266.967Z" fill="url(#paint1_linear_60_262)"/>
<path d="M199.24 263.536C200.41 265.674 201.806 267.652 203.399 269.428C204.421 270.426 205.315 271.574 206.055 272.84C206.708 274.149 206.898 275.884 206.114 277.108C205.068 278.738 202.929 278.778 201.129 278.614C197.909 278.326 194.267 277.632 192.508 274.647C191.712 273.298 191.415 271.622 190.5 270.365C189.846 269.461 188.913 268.826 188.313 267.883C187.059 265.919 187.582 263.222 188.182 260.904C188.313 260.056 188.708 259.285 189.299 258.724C189.858 258.395 190.494 258.26 191.124 258.338C192.817 258.377 194.908 258.338 196.352 259.379C197.683 260.348 198.444 262.063 199.24 263.536Z" fill="url(#paint2_linear_60_262)"/>
<path d="M188.836 259.941C189.288 260.989 189.876 262.076 190.844 262.528C191.76 262.835 192.739 262.835 193.655 262.528C194.153 262.453 194.622 262.226 195.009 261.873C195.373 261.381 195.568 260.765 195.562 260.131C195.861 256.198 194.964 252.266 193.013 248.955C192.003 249.682 190.999 250.428 190.042 251.201C189.377 251.725 187.559 252.707 187.22 253.532C186.59 255.031 188.248 258.56 188.836 259.941Z" fill="#E9B9A3"/>
<path d="M119.427 260.93C119.255 262.423 119.1 264.046 119.807 265.336C120.258 266.082 120.952 266.607 121.745 266.804C122.539 267 123.37 266.852 124.067 266.39C124.557 266.006 124.973 265.518 125.291 264.956C126.318 263.158 126.93 261.11 127.074 258.992C127.207 256.881 127.184 254.761 127.002 252.654C127.002 252.242 121.607 254.854 121.18 255.168C119.409 256.451 119.688 258.73 119.427 260.93Z" fill="#E9B9A3"/>
<path d="M133.437 161.276C133.015 175.962 133.098 190.797 130.342 205.142C126.907 223.029 119.053 240.137 119.706 258.449C121.239 260.23 123.954 259.759 125.594 258.115C127.234 256.472 128.072 254.023 128.844 251.666C132.564 240.346 136.289 229.02 139.367 217.444C142.837 204.402 145.481 191.059 149.509 178.247C151.826 170.868 154.619 163.587 155.522 155.803C156.05 155.941 156.599 155.947 157.129 155.821C157.66 155.695 158.158 155.441 158.588 155.076C159.936 169.774 169.158 181.978 171.915 196.415C172.895 201.561 173.026 206.89 173.572 212.095C175.224 228.083 180.702 243.306 188.076 256.93C190.185 257.657 192.425 255.752 193.251 253.382C194.076 251.012 193.874 248.34 193.649 245.8C192.9 237.289 192.145 228.699 190.084 220.489C188.218 213.104 185.331 206.052 184.225 198.451C183.471 193.148 183.631 187.733 183.703 182.352C183.952 161.643 182.164 139.54 171.273 123.172C165.629 124.761 159.858 125.739 154.042 126.092C149.236 126.38 143.995 124.39 140.686 128.776C134.322 137.216 133.758 150.637 133.437 161.276Z" fill="#3F3D56"/>
<path d="M133.437 161.276C133.015 175.962 133.098 190.797 130.342 205.142C126.907 223.029 119.053 240.137 119.706 258.449C121.239 260.23 123.954 259.759 125.594 258.115C127.234 256.472 128.072 254.023 128.844 251.666C132.564 240.346 136.289 229.02 139.367 217.444C142.837 204.402 145.481 191.059 149.509 178.247C151.826 170.868 154.619 163.587 155.522 155.803C156.05 155.941 156.599 155.947 157.129 155.821C157.66 155.695 158.158 155.441 158.588 155.076C159.936 169.774 169.158 181.978 171.915 196.415C172.895 201.561 173.026 206.89 173.572 212.095C175.224 228.083 180.702 243.306 188.076 256.93C190.185 257.657 192.425 255.752 193.251 253.382C194.076 251.012 193.874 248.34 193.649 245.8C192.9 237.289 192.145 228.699 190.084 220.489C188.218 213.104 185.331 206.052 184.225 198.451C183.471 193.148 183.631 187.733 183.703 182.352C183.952 161.643 182.164 139.54 171.273 123.172C165.629 124.761 159.858 125.739 154.042 126.092C149.236 126.38 143.995 124.39 140.686 128.776C134.322 137.216 133.758 150.637 133.437 161.276Z" fill="url(#paint3_linear_60_262)"/>
<path d="M142.569 125.45C145.605 130.144 151.036 132.56 156.235 132.357C161.434 132.154 166.454 129.581 170.494 125.954C171.068 125.53 171.514 124.929 171.778 124.226C171.915 123.414 171.87 122.578 171.647 121.79C170.75 116.441 173.632 111.171 173.703 105.73C173.752 104.957 173.616 104.183 173.311 103.484C172.846 102.732 172.2 102.138 171.445 101.769C166.829 98.9799 161.558 97.258 156.306 97.6966C152.527 98.0044 144.179 100.61 143.116 105.52C142.581 108.002 144.197 112.362 144.167 115.099C144.149 118.622 143.609 122.118 142.569 125.45Z" fill="#E9B9A3"/>
<path d="M192.918 44.5532L180.476 52.5538L182.568 56.2268L194.873 48.2524L192.918 44.5532Z" fill="url(#paint4_linear_60_262)"/>
<path d="M173.946 69.5112C176.138 69.4207 178.292 70.1549 180.054 71.5932C181.802 73.0238 183.397 74.669 184.808 76.497C186.323 75.744 188.07 75.9994 189.703 76.3136C193.88 77.1268 198 78.2623 202.032 79.7116C200.318 71.5092 196.98 63.8253 192.258 57.2091C192.144 57.0284 191.996 56.8767 191.825 56.7639C191.558 56.6551 191.265 56.6551 190.999 56.7639C189.466 57.2549 187.915 58.4334 186.43 57.8114C185.971 57.5904 185.554 57.2774 185.2 56.8883C183.302 54.959 181.851 52.5568 180.969 49.8828C182.633 50.5375 183.257 53.0451 184.95 53.595C186.139 53.9813 187.368 53.248 188.337 52.4035C189.305 51.5589 190.244 50.5572 191.456 50.2822C192.936 49.9417 194.469 50.8321 195.473 52.0761C196.407 53.3914 197.171 54.8435 197.742 56.3907C201.474 64.902 207.51 71.8943 211.634 80.1568C212.703 82.3043 213.66 84.5827 213.868 87.0182C213.947 87.5413 213.893 88.0781 213.713 88.5699C213.486 89.0098 213.156 89.374 212.757 89.624C211.207 90.6011 209.476 91.1745 207.694 91.3001C204.776 91.5838 201.844 91.6385 198.919 91.4638C195.027 91.3328 191.005 91.1626 187.523 89.2508C185.307 88.033 183.085 86.0754 180.655 86.632C180.06 86.7629 176.858 92.4655 176.287 92.6684C174.689 93.2577 174.416 90.5341 172.723 90.4031C170.839 90.2525 170.12 87.2081 168.534 86.0689C166.92 84.8039 165.71 83.0098 165.076 80.9425C164.474 79.326 164.103 77.6166 163.977 75.875C163.923 74.1138 165.165 74.0811 166.508 73.2103C168.855 71.6914 171.154 69.7469 173.946 69.5112Z" fill="#E9B9A3"/>
<path d="M199.346 52.6707L201.784 51.04C202.729 50.4076 203.03 49.0506 202.456 48.0089L197.548 39.0991C196.974 38.0574 195.742 37.7256 194.797 38.358L192.359 39.9887C191.414 40.6211 191.113 41.9781 191.687 43.0198L196.595 51.9296C197.169 52.9713 198.4 53.3031 199.346 52.6707Z" fill="url(#paint5_linear_60_262)"/>
<path d="M181.731 63.5802L184.169 61.9494C185.114 61.3171 185.415 59.96 184.841 58.9184L179.933 50.0085C179.359 48.9669 178.128 48.6351 177.182 49.2674L174.744 50.8982C173.799 51.5305 173.498 52.8875 174.072 53.9292L178.98 62.839C179.554 63.8807 180.786 64.2125 181.731 63.5802Z" fill="url(#paint6_linear_60_262)"/>
<path d="M191.397 46.0395C191.981 46.619 192.459 47.3169 192.805 48.0953C192.916 48.2958 192.991 48.5181 193.025 48.75C193.042 48.8642 193.031 48.9814 192.993 49.0895C192.956 49.1976 192.893 49.2928 192.811 49.3654C192.49 49.6011 192.074 49.3065 191.795 49.0119C191.273 48.4541 190.796 47.8473 190.369 47.1983C190.833 47.9076 191.22 48.6745 191.522 49.4833C191.577 49.6039 191.607 49.7374 191.607 49.8728C191.607 50.0082 191.577 50.1417 191.522 50.2624C191.443 50.3681 191.334 50.4419 191.213 50.4719C191.044 50.4945 190.872 50.4788 190.709 50.4259C190.545 50.373 190.393 50.2839 190.262 50.1642C189.656 49.681 189.103 49.1206 188.616 48.4946C189.007 49.1803 189.328 49.9115 189.573 50.6748C189.657 50.8797 189.688 51.1064 189.662 51.3296C189.606 51.5133 189.496 51.6714 189.35 51.7792C189.204 51.8869 189.029 51.9383 188.854 51.9254C188.502 51.8831 188.168 51.731 187.891 51.4867C187.323 51.0535 186.825 50.5178 186.418 49.9023C186.65 50.557 187.089 51.0284 187.285 51.6635C187.375 51.9274 187.409 52.2107 187.383 52.4912C187.357 52.7718 187.273 53.042 187.137 53.2806C186.997 53.5157 186.792 53.6949 186.552 53.7916C186.312 53.8883 186.051 53.8974 185.806 53.8175C185.537 53.6886 185.297 53.499 185.099 53.261L183.91 52.0301C183.678 51.7278 183.364 51.5165 183.013 51.4278C182.894 51.4278 182.77 51.4278 182.651 51.4278C182.38 51.3212 182.155 51.1062 182.021 50.8254C181.849 50.6051 181.747 50.3295 181.73 50.0398C181.755 49.8239 181.838 49.6211 181.968 49.4571C182.799 48.2524 184.219 47.8006 185.396 47.0215C185.814 46.7129 186.246 46.4288 186.691 46.1704C187.102 45.9985 187.535 45.9033 187.974 45.8889C188.384 45.843 188.646 45.5419 189.032 45.4044C189.443 45.2864 189.874 45.2826 190.287 45.3934C190.7 45.5043 191.081 45.7262 191.397 46.0395Z" fill="#E9B9A3"/>
<path d="M106.659 66.7023L120.995 65.1899L121.245 69.5176L107.027 70.958L106.659 66.7023Z" fill="url(#paint7_linear_60_262)"/>
<path d="M135.279 74.7553C133.453 76.0926 132.094 78.0731 131.423 80.3727C130.769 82.6576 130.35 85.0163 130.175 87.4044C128.547 87.771 127.258 89.1001 126.099 90.4095C123.139 93.7575 120.395 97.3301 117.888 101.101C114.93 93.3459 113.561 84.9673 113.877 76.5623C113.867 76.3366 113.908 76.1116 113.996 75.9076C114.16 75.6504 114.403 75.4668 114.68 75.3904C116.177 74.8077 118.06 74.7684 118.94 73.3018C119.194 72.8284 119.365 72.3065 119.445 71.7632C119.978 68.9679 119.886 66.0716 119.177 63.324C118.167 64.9215 118.993 67.3636 117.918 68.9021C117.163 69.9759 115.767 70.1723 114.531 70.1134C113.295 70.0544 112.006 69.8384 110.877 70.3949C109.493 71.0496 108.72 72.7781 108.566 74.4345C108.507 76.1034 108.657 77.7734 109.011 79.3972C110.479 88.6942 109.297 98.2661 110.324 107.629C110.592 110.064 111.026 112.526 112.143 114.641C112.357 115.116 112.686 115.516 113.093 115.799C113.509 116.009 113.969 116.091 114.424 116.035C116.2 115.838 117.91 115.191 119.421 114.143C121.939 112.493 124.35 110.651 126.634 108.63C129.724 106.011 132.908 103.294 134.72 99.5035C135.873 97.0876 136.64 94.0694 138.88 92.9564C139.438 92.7163 140.009 92.5152 140.591 92.354C142.187 91.7386 143.657 90.7819 144.916 89.5388C146.433 88.2783 147.637 86.6164 148.416 84.707C149.056 82.6409 149.089 80.4051 148.511 78.3169C148.147 76.6187 147.545 74.9931 146.728 73.4982C145.837 72.0317 144.821 72.7977 143.264 72.9614C140.567 73.2495 137.673 73.1512 135.279 74.7553Z" fill="#E9B9A3"/>
<path d="M151.345 66.8987C151.309 68.2081 151.291 69.6223 151.903 70.755C152.884 72.5947 155.106 73.0596 157.043 73.0137C157.929 73.0271 158.809 72.8584 159.639 72.5161C160.053 72.3476 160.431 72.0859 160.748 71.7477C161.065 71.4096 161.315 71.0023 161.481 70.552C161.65 69.8724 161.7 69.1637 161.63 68.4635L161.392 63.396C161.4 62.1656 161.215 60.9429 160.845 59.7819C160.78 59.5613 160.653 59.3689 160.483 59.232C160.298 59.1353 160.092 59.0967 159.889 59.1207C157.78 59.1948 155.676 59.387 153.585 59.6968C152.212 59.8998 151.47 60.2468 151.458 61.7461C151.416 63.4483 151.392 65.1768 151.345 66.8987Z" fill="#E09D80"/>
<path d="M148.76 59.4873C150.668 62.2764 153.852 64.4566 156.924 63.5793C159.212 62.9246 160.881 60.7313 161.998 58.4398C163.312 55.7109 164.083 52.7051 164.262 49.6223C164.44 46.5394 164.021 43.4501 163.032 40.5595C162.513 38.884 161.639 37.369 160.483 36.1402C158.154 33.8487 154.66 33.5933 151.612 34.3593C149.557 34.8766 147.305 36.1729 146.152 38.2156C145.261 39.7869 145.368 41.8951 145.279 43.6759C145.011 49.169 145.671 54.9763 148.76 59.4873Z" fill="#E9B9A3"/>
<path d="M147.406 71.6716C146.93 71.9073 146.384 72.1561 146.217 72.6995C146.139 72.9972 146.123 73.3106 146.17 73.6161C146.587 79.179 145.183 84.7226 142.213 89.2442C141.587 90.0998 141.017 91.0034 140.508 91.9482C139.66 93.8648 139.365 96.0219 139.664 98.1287C139.963 100.221 140.455 102.274 141.131 104.257C141.241 104.694 141.424 105.105 141.672 105.468C142.575 106.614 144.245 106.044 145.516 105.468C150.847 103.022 156.712 102.353 162.384 103.543C165.896 104.342 169.276 105.939 172.853 106.162C173.288 106.229 173.731 106.152 174.125 105.939C174.601 105.507 174.906 104.887 174.974 104.211L176.965 95.1432C177.14 94.5073 177.215 93.8428 177.185 93.179C177.024 91.5881 175.753 90.475 174.749 89.3227C171.819 85.9641 170.714 81.2108 169.716 76.6867C169.329 75.1648 169.088 73.6024 168.997 72.0252C169.029 71.5946 168.962 71.1622 168.801 70.7681C168.612 70.4665 168.357 70.223 168.058 70.061C166.187 68.8891 163.899 68.4242 162.432 66.6696C162.115 66.1544 161.688 65.7319 161.19 65.4387C160.874 65.3361 160.543 65.3049 160.216 65.3471C158.706 65.4256 157.203 65.5631 155.706 65.7465C154.732 65.8709 152.272 65.7465 151.547 66.4994C150.953 67.1541 150.78 68.6927 150.163 69.4914C149.399 70.4313 148.458 71.1755 147.406 71.6716Z" fill="url(#paint8_linear_60_262)"/>
<path d="M104.685 62.6229L101.841 62.8672C100.739 62.962 99.9147 64.0237 100.001 65.2385L100.736 75.63C100.822 76.8449 101.786 77.7529 102.888 77.6582L105.732 77.4138C106.834 77.319 107.658 76.2574 107.572 75.0425L106.837 64.651C106.751 63.4361 105.787 62.5281 104.685 62.6229Z" fill="url(#paint9_linear_60_262)"/>
<path d="M124.751 60.1512L121.908 60.3956C120.806 60.4903 119.982 61.552 120.068 62.7669L120.803 73.1584C120.889 74.3732 121.853 75.2812 122.955 75.1865L125.798 74.9421C126.901 74.8473 127.725 73.7857 127.639 72.5708L126.903 62.1793C126.817 60.9645 125.854 60.0564 124.751 60.1512Z" fill="url(#paint10_linear_60_262)"/>
<path d="M108.679 66.9251C108.509 67.773 108.491 68.6491 108.625 69.5047C108.639 69.7324 108.694 69.9548 108.786 70.1594C108.833 70.2635 108.905 70.3518 108.994 70.4151C109.082 70.4784 109.185 70.5144 109.291 70.5195C109.671 70.5195 109.855 70.0023 109.926 69.5832C110.054 68.7944 110.12 67.9948 110.122 67.1935C110.118 68.0758 110.212 68.9553 110.402 69.8124C110.416 69.9501 110.462 70.0817 110.533 70.1958C110.604 70.3099 110.7 70.403 110.812 70.4671C110.929 70.5125 111.057 70.5125 111.174 70.4671C111.32 70.3741 111.448 70.2497 111.551 70.1012C111.653 69.9528 111.727 69.7833 111.768 69.6029C112.003 68.8199 112.153 68.0089 112.214 67.187C112.26 67.9966 112.387 68.7981 112.594 69.5767C112.637 69.8027 112.735 70.0113 112.879 70.179C113.021 70.293 113.194 70.3511 113.37 70.3439C113.545 70.3368 113.714 70.2649 113.848 70.1397C114.113 69.8818 114.304 69.5455 114.4 69.1708C114.631 68.4513 114.751 67.6946 114.757 66.9316C114.894 67.5864 114.81 68.2804 114.983 68.9285C115.05 69.1989 115.174 69.4486 115.342 69.6586C115.511 69.8685 115.722 70.0331 115.957 70.1397C116.196 70.2427 116.459 70.2574 116.707 70.1819C116.954 70.1064 117.173 69.9446 117.33 69.7207C117.478 69.4442 117.571 69.1363 117.603 68.8172L117.9 67.0626C117.928 66.6674 118.072 66.2929 118.31 65.9954C118.408 65.9178 118.502 65.8325 118.589 65.7401C118.752 65.4801 118.82 65.1622 118.779 64.8496C118.801 64.5608 118.739 64.2718 118.601 64.0247C118.465 63.8651 118.289 63.7534 118.096 63.7039C116.789 63.2652 115.393 63.8086 114.026 63.933C113.523 63.9482 113.021 63.9963 112.523 64.0771C112.099 64.1994 111.697 64.401 111.335 64.6729C110.973 64.8128 110.598 64.9073 110.218 64.9544C109.836 65.1229 109.498 65.3898 109.23 65.7328C108.962 66.0758 108.773 66.4847 108.679 66.9251Z" fill="#E9B9A3"/>
<path d="M144.132 41.4436C144.447 39.7487 145.114 38.1573 146.081 36.7942C147.048 35.4312 148.289 34.3334 149.705 33.587C151.232 32.8964 152.867 32.5384 154.518 32.5329C156.181 32.3686 157.853 32.7225 159.342 33.5543C160.774 34.4774 161.719 36.0553 162.551 37.6528C164.066 40.6317 165.195 44.2588 164.018 47.4146C163.596 45.2016 163.163 42.9363 162.081 41.0115C161.122 39.3344 159.724 38.0166 158.072 37.2314C156.42 36.4462 154.591 36.2303 152.826 36.6121C151.06 36.994 149.441 37.9557 148.181 39.3708C146.921 40.7859 146.079 42.5881 145.766 44.5404C145.481 46.3932 145.7 48.305 145.51 50.1447C143.455 48.9008 143.645 43.6434 144.132 41.4436Z" fill="#3F3D56"/>
<path d="M144.132 49.444C144.022 49.4178 143.909 49.4178 143.799 49.444C143.49 49.5356 143.359 49.9285 143.33 50.2755C143.461 51.8726 144.116 53.3622 145.172 54.4657C145.483 54.766 145.881 54.9373 146.295 54.9501C146.4 54.9587 146.507 54.9388 146.604 54.892C146.701 54.8453 146.787 54.7731 146.853 54.6817C146.906 54.5656 146.936 54.4384 146.942 54.3085C146.966 53.1568 146.692 52.0215 146.152 51.0349C146.011 50.601 145.754 50.2244 145.415 49.9547C145.022 49.6922 144.586 49.5186 144.132 49.444Z" fill="#E9B9A3"/>
<path d="M164.642 45.5878C164.788 45.5063 164.948 45.459 165.112 45.4488C165.275 45.4387 165.439 45.466 165.593 45.5289C165.81 45.6706 165.987 45.8776 166.101 46.1257C166.216 46.3738 166.264 46.6528 166.24 46.93C166.292 48.4028 166.067 49.8715 165.581 51.2445C165.55 51.3708 165.497 51.4888 165.423 51.5913C165.349 51.6938 165.258 51.7785 165.153 51.8403C164.767 52.004 164.363 51.6439 164.137 51.2969C163.145 49.778 162.616 46.6746 164.642 45.5878Z" fill="#E9B9A3"/>
<defs>
<linearGradient id="paint0_linear_60_262" x1="160.4" y1="51.5065" x2="175.346" y2="67.0237" gradientUnits="userSpaceOnUse">
<stop offset="0.01"/>
<stop offset="0.13" stop-opacity="0.69"/>
<stop offset="1" stop-opacity="0"/>
</linearGradient>
<linearGradient id="paint1_linear_60_262" x1="118.877" y1="261.742" x2="118.877" y2="282.108" gradientUnits="userSpaceOnUse">
<stop stop-color="#5328D4"/>
<stop offset="1" stop-color="#7632D0"/>
</linearGradient>
<linearGradient id="paint2_linear_60_262" x1="197.086" y1="258.316" x2="197.086" y2="278.678" gradientUnits="userSpaceOnUse">
<stop stop-color="#5328D4"/>
<stop offset="1" stop-color="#7632D0"/>
</linearGradient>
<linearGradient id="paint3_linear_60_262" x1="119.688" y1="191.367" x2="193.869" y2="191.367" gradientUnits="userSpaceOnUse">
<stop offset="0.01"/>
<stop offset="0.13" stop-opacity="0.69"/>
<stop offset="1" stop-opacity="0"/>
</linearGradient>
<linearGradient id="paint4_linear_60_262" x1="187.674" y1="44.5532" x2="187.674" y2="56.2268" gradientUnits="userSpaceOnUse">
<stop stop-color="#5328D4"/>
<stop offset="1" stop-color="#7632D0"/>
</linearGradient>
<linearGradient id="paint5_linear_60_262" x1="200.565" y1="51.8554" x2="192.544" y2="39.8651" gradientUnits="userSpaceOnUse">
<stop stop-color="#5328D4"/>
<stop offset="1" stop-color="#7632D0"/>
</linearGradient>
<linearGradient id="paint6_linear_60_262" x1="182.95" y1="62.7648" x2="174.929" y2="50.7745" gradientUnits="userSpaceOnUse">
<stop stop-color="#5328D4"/>
<stop offset="1" stop-color="#7632D0"/>
</linearGradient>
<linearGradient id="paint7_linear_60_262" x1="113.952" y1="65.1899" x2="113.952" y2="70.958" gradientUnits="userSpaceOnUse">
<stop stop-color="#5328D4"/>
<stop offset="1" stop-color="#7632D0"/>
</linearGradient>
<linearGradient id="paint8_linear_60_262" x1="158.371" y1="65.3289" x2="158.371" y2="106.186" gradientUnits="userSpaceOnUse">
<stop stop-color="#5328D4"/>
<stop offset="1" stop-color="#7632D0"/>
</linearGradient>
<linearGradient id="paint9_linear_60_262" x1="103.263" y1="62.7451" x2="104.533" y2="77.5168" gradientUnits="userSpaceOnUse">
<stop stop-color="#5328D4"/>
<stop offset="1" stop-color="#7632D0"/>
</linearGradient>
<linearGradient id="paint10_linear_60_262" x1="123.33" y1="60.2734" x2="124.599" y2="75.0452" gradientUnits="userSpaceOnUse">
<stop stop-color="#5328D4"/>
<stop offset="1" stop-color="#7632D0"/>
</linearGradient>
</defs>
</svg>
